<?xml version="1.0" encoding="UTF-8" standalone="no"?><!DOCTYPE svg PUBLIC "-//W3C//DTD SVG 1.1//EN" "http://www.w3.org/Graphics/SVG/1.1/DTD/svg11.dtd"><svg width="20px" height="20px" viewBox="0 0 152 151" version="1.1" xmlns="http://www.w3.org/2000/svg" xmlns:xlink="http://www.w3.org/1999/xlink" xml:space="preserve" style="fill-rule:evenodd;clip-rule:evenodd;stroke-linejoin:round;stroke-miterlimit:1.41421;"><g id="CLOSED-CAPTION"><text x="14.05px" y="103.757px" style="font-family:'SignPainter-HouseScript', 'SignPainter';font-size:128px;fill:#fff;">C<tspan x="68.066px " y="103.757px ">C</tspan></text><path d="M123.352,0c15.744,0.001 28.524,14.348 28.524,32.019l0,64.039c0,17.672 -12.781,32.019 -28.524,32.019l-51.211,0l-42.144,22.323l9.551,-22.323l-11.024,0c-15.743,0 -28.524,-14.347 -28.524,-32.019l0,-64.039c0,-17.671 12.781,-32.018 28.524,-32.019l94.828,0Zm-5.527,13.85l-83.774,0c-12.309,0.001 -22.301,11.218 -22.301,25.035l0,50.069c0,13.816 9.992,25.034 22.301,25.034l83.774,0c12.309,0 22.302,-11.218 22.302,-25.034l0,-50.069c0,-13.817 -9.993,-25.034 -22.302,-25.035Z" style="fill:#fff;"/></g></svg>