<?xml version="1.0" encoding="UTF-8" standalone="no"?><!DOCTYPE svg PUBLIC "-//W3C//DTD SVG 1.1//EN" "http://www.w3.org/Graphics/SVG/1.1/DTD/svg11.dtd"><svg width="20px" height="20px" viewBox="0 0 119 113" version="1.1" xmlns="http://www.w3.org/2000/svg" xmlns:xlink="http://www.w3.org/1999/xlink" xml:space="preserve" style="fill-rule:evenodd;clip-rule:evenodd;stroke-linejoin:round;stroke-miterlimit:1.41421;"><g id="CLOSED-CAPTION--off-"><text x="12.767px" y="77.818px" style="font-family:'SignPainter-HouseScript', 'SignPainter';font-size:96px;fill:#fff;">C<tspan x="53.279px " y="77.818px ">C</tspan></text><path d="M94.743,0c11.807,0 21.393,10.761 21.393,24.015l0,48.029c0,13.254 -9.586,24.014 -21.393,24.014l-38.408,0l-31.609,16.742l7.164,-16.742l-8.268,0c-11.808,0 -21.393,-10.761 -21.393,-24.014l0,-48.029c0,-13.254 9.585,-24.015 21.393,-24.015l71.121,0Zm-4.145,10.388l-62.831,0c-9.232,0 -16.726,8.413 -16.726,18.776l0,37.551c0,10.363 7.495,18.776 16.726,18.776l62.831,0c9.231,0 16.726,-8.413 16.726,-18.776l0,-37.551c0,-10.363 -7.495,-18.776 -16.726,-18.776Z" style="fill:#fff;"/><g id="Layer2"><path d="M117.737,15.12c-1.292,-2.237 -4.157,-3.005 -6.395,-1.713l-109.001,62.931c-2.238,1.292 -3.006,4.158 -1.714,6.396c1.292,2.238 4.158,3.006 6.396,1.714l109.001,-62.932c2.238,-1.292 3.005,-4.158 1.713,-6.396Z" style="fill:#ec6f60;"/></g></g></svg>